{
    "asset" : {
        "generator" : "Khronos glTF Blender I/O v1.1.45",
        "version" : "2.0"
    },
    "scene" : 0,
    "scenes" : [
        {
            "name" : "Scene",
            "nodes" : [
                0,
                1,
                2,
                3
            ]
        }
    ],
    "nodes" : [
        {
            "mesh" : 0,
            "name" : "cub",
            "rotation" : [
                -0.2851490080356598,
                0.7228793501853943,
                -0.22157534956932068,
                0.5891008973121643
            ],
            "translation" : [
                0,
                0,
                3.193574905395508
            ]
        },
        {
            "name" : "Light",
            "rotation" : [
                0.16907575726509094,
                0.7558803558349609,
                -0.27217137813568115,
                0.570947527885437
            ],
            "translation" : [
                4.076245307922363,
                5.903861999511719,
                -1.0054539442062378
            ]
        },
        {
            "name" : "cam",
            "rotation" : [
                0.483536034822464,
                0.33687159419059753,
                -0.20870360732078552,
                0.7804827094078064
            ],
            "translation" : [
                7.358891487121582,
                2.874795913696289,
                6.925790786743164
            ]
        },
        {
            "mesh" : 1,
            "name" : "Text",
            "rotation" : [
                0.6759134531021118,
                0.24453093111515045,
                -0.24614988267421722,
                0.6501967906951904
            ],
            "scale" : [
                2.7037417888641357,
                3.1182126998901367,
                3.910888195037842
            ],
            "translation" : [
                -3.8142857551574707,
                -2.1412878036499023,
                3.3766961097717285
            ]
        }
    ],
    "animations" : [
        {
            "channels" : [
                {
                    "sampler" : 0,
                    "target" : {
                        "node" : 0,
                        "path" : "translation"
                    }
                },
                {
                    "sampler" : 1,
                    "target" : {
                        "node" : 0,
                        "path" : "rotation"
                    }
                },
                {
                    "sampler" : 2,
                    "target" : {
                        "node" : 0,
                        "path" : "scale"
                    }
                }
            ],
            "name" : "cubac",
            "samplers" : [
                {
                    "input" : 8,
                    "interpolation" : "LINEAR",
                    "output" : 9
                },
                {
                    "input" : 8,
                    "interpolation" : "LINEAR",
                    "output" : 10
                },
                {
                    "input" : 8,
                    "interpolation" : "LINEAR",
                    "output" : 11
                }
            ]
        },
        {
            "channels" : [
                {
                    "sampler" : 0,
                    "target" : {
                        "node" : 2,
                        "path" : "translation"
                    }
                },
                {
                    "sampler" : 1,
                    "target" : {
                        "node" : 2,
                        "path" : "rotation"
                    }
                },
                {
                    "sampler" : 2,
                    "target" : {
                        "node" : 2,
                        "path" : "scale"
                    }
                }
            ],
            "name" : "camAction",
            "samplers" : [
                {
                    "input" : 12,
                    "interpolation" : "STEP",
                    "output" : 13
                },
                {
                    "input" : 12,
                    "interpolation" : "STEP",
                    "output" : 14
                },
                {
                    "input" : 12,
                    "interpolation" : "STEP",
                    "output" : 15
                }
            ]
        },
        {
            "channels" : [
                {
                    "sampler" : 0,
                    "target" : {
                        "node" : 3,
                        "path" : "translation"
                    }
                },
                {
                    "sampler" : 1,
                    "target" : {
                        "node" : 3,
                        "path" : "rotation"
                    }
                },
                {
                    "sampler" : 2,
                    "target" : {
                        "node" : 3,
                        "path" : "scale"
                    }
                }
            ],
            "name" : "TextAction",
            "samplers" : [
                {
                    "input" : 12,
                    "interpolation" : "STEP",
                    "output" : 16
                },
                {
                    "input" : 12,
                    "interpolation" : "STEP",
                    "output" : 17
                },
                {
                    "input" : 12,
                    "interpolation" : "STEP",
                    "output" : 18
                }
            ]
        }
    ],
    "materials" : [
        {
            "doubleSided" : true,
            "emissiveFactor" : [
                0,
                0,
                0
            ],
            "name" : "Material",
            "pbrMetallicRoughness" : {
                "baseColorFactor" : [
                    0.8000000715255737,
                    0.21318639814853668,
                    0.06688913702964783,
                    1
                ],
                "metallicFactor" : 0,
                "roughnessFactor" : 0.4000000059604645
            }
        }
    ],
    "meshes" : [
        {
            "name" : "Cube",
            "primitives" : [
                {
                    "attributes" : {
                        "POSITION" : 0,
                        "NORMAL" : 1,
                        "TEXCOORD_0" : 2
                    },
                    "indices" : 3,
                    "material" : 0
                }
            ]
        },
        {
            "name" : "Text",
            "primitives" : [
                {
                    "attributes" : {
                        "POSITION" : 4,
                        "NORMAL" : 5,
                        "TEXCOORD_0" : 6
                    },
                    "indices" : 7
                }
            ]
        }
    ],
    "accessors" : [
        {
            "bufferView" : 0,
            "componentType" : 5126,
            "count" : 24,
            "max" : [
                1,
                1,
                1
            ],
            "min" : [
                -1,
                -1,
                -1
            ],
            "type" : "VEC3"
        },
        {
            "bufferView" : 1,
            "componentType" : 5126,
            "count" : 24,
            "type" : "VEC3"
        },
        {
            "bufferView" : 2,
            "componentType" : 5126,
            "count" : 24,
            "type" : "VEC2"
        },
        {
            "bufferView" : 3,
            "componentType" : 5123,
            "count" : 36,
            "type" : "SCALAR"
        },
        {
            "bufferView" : 4,
            "componentType" : 5126,
            "count" : 1101,
            "max" : [
                2.515000104904175,
                0.18664945662021637,
                0.009271510876715183
            ],
            "min" : [
                0.017000000923871994,
                -0.1162789911031723,
                -0.9151699542999268
            ],
            "type" : "VEC3"
        },
        {
            "bufferView" : 5,
            "componentType" : 5126,
            "count" : 1101,
            "type" : "VEC3"
        },
        {
            "bufferView" : 6,
            "componentType" : 5126,
            "count" : 1101,
            "type" : "VEC2"
        },
        {
            "bufferView" : 7,
            "componentType" : 5123,
            "count" : 2088,
            "type" : "SCALAR"
        },
        {
            "bufferView" : 8,
            "componentType" : 5126,
            "count" : 119,
            "max" : [
                4.916666666666667
            ],
            "min" : [
                0
            ],
            "type" : "SCALAR"
        },
        {
            "bufferView" : 9,
            "componentType" : 5126,
            "count" : 119,
            "type" : "VEC3"
        },
        {
            "bufferView" : 10,
            "componentType" : 5126,
            "count" : 119,
            "type" : "VEC4"
        },
        {
            "bufferView" : 11,
            "componentType" : 5126,
            "count" : 119,
            "type" : "VEC3"
        },
        {
            "bufferView" : 12,
            "componentType" : 5126,
            "count" : 1,
            "max" : [
                1.0833333333333333
            ],
            "min" : [
                1.0833333333333333
            ],
            "type" : "SCALAR"
        },
        {
            "bufferView" : 13,
            "componentType" : 5126,
            "count" : 1,
            "type" : "VEC3"
        },
        {
            "bufferView" : 14,
            "componentType" : 5126,
            "count" : 1,
            "type" : "VEC4"
        },
        {
            "bufferView" : 15,
            "componentType" : 5126,
            "count" : 1,
            "type" : "VEC3"
        },
        {
            "bufferView" : 16,
            "componentType" : 5126,
            "count" : 1,
            "type" : "VEC3"
        },
        {
            "bufferView" : 17,
            "componentType" : 5126,
            "count" : 1,
            "type" : "VEC4"
        },
        {
            "bufferView" : 18,
            "componentType" : 5126,
            "count" : 1,
            "type" : "VEC3"
        }
    ],
    "bufferViews" : [
        {
            "buffer" : 0,
            "byteLength" : 288,
            "byteOffset" : 0
        },
        {
            "buffer" : 0,
            "byteLength" : 288,
            "byteOffset" : 288
        },
        {
            "buffer" : 0,
            "byteLength" : 192,
            "byteOffset" : 576
        },
        {
            "buffer" : 0,
            "byteLength" : 72,
            "byteOffset" : 768
        },
        {
            "buffer" : 0,
            "byteLength" : 13212,
            "byteOffset" : 840
        },
        {
            "buffer" : 0,
            "byteLength" : 13212,
            "byteOffset" : 14052
        },
        {
            "buffer" : 0,
            "byteLength" : 8808,
            "byteOffset" : 27264
        },
        {
            "buffer" : 0,
            "byteLength" : 4176,
            "byteOffset" : 36072
        },
        {
            "buffer" : 0,
            "byteLength" : 476,
            "byteOffset" : 40248
        },
        {
            "buffer" : 0,
            "byteLength" : 1428,
            "byteOffset" : 40724
        },
        {
            "buffer" : 0,
            "byteLength" : 1904,
            "byteOffset" : 42152
        },
        {
            "buffer" : 0,
            "byteLength" : 1428,
            "byteOffset" : 44056
        },
        {
            "buffer" : 0,
            "byteLength" : 4,
            "byteOffset" : 45484
        },
        {
            "buffer" : 0,
            "byteLength" : 12,
            "byteOffset" : 45488
        },
        {
            "buffer" : 0,
            "byteLength" : 16,
            "byteOffset" : 45500
        },
        {
            "buffer" : 0,
            "byteLength" : 12,
            "byteOffset" : 45516
        },
        {
            "buffer" : 0,
            "byteLength" : 12,
            "byteOffset" : 45528
        },
        {
            "buffer" : 0,
            "byteLength" : 16,
            "byteOffset" : 45540
        },
        {
            "buffer" : 0,
            "byteLength" : 12,
            "byteOffset" : 45556
        }
    ],
    "buffers" : [
        {
            "byteLength" : 45568,
            "uri" : "data:application/octet-stream;base64,"
        }
    ]
}
